<svg id="bc2e51db-ce96-43ee-853b-05d393f94a0e" data-name="Calque 1" xmlns="http://www.w3.org/2000/svg" viewBox="0 0 693.86 495.6"><circle cx="145.53" cy="117.09" r="117.09" style="fill:#dd4915"/><path d="M65.91,101.45a15.64,15.64,0,1,0,15.64,15.64A15.63,15.63,0,0,0,65.91,101.45Zm111.62,71.06a15.63,15.63,0,1,0,21.35,5.72A15.62,15.62,0,0,0,177.53,172.51ZM99.87,117.09a45.6,45.6,0,0,1,19.42-37.36L107.86,60.59a68,68,0,0,0-28.09,39.47,22,22,0,0,1,0,34.06,68.06,68.06,0,0,0,28.09,39.48l11.43-19.15A45.6,45.6,0,0,1,99.87,117.09Zm45.66-45.67A45.66,45.66,0,0,1,191,113l22.28-.33a67.73,67.73,0,0,0-20.18-44,22,22,0,0,1-29.44-17,68,68,0,0,0-48.24,4.57L126.3,75.67A45.45,45.45,0,0,1,145.53,71.42Zm0,91.33a45.44,45.44,0,0,1-19.23-4.24L115.44,178a67.91,67.91,0,0,0,48.24,4.56,21.94,21.94,0,0,1,29.43-17,67.64,67.64,0,0,0,20.18-44L191,121.14A45.65,45.65,0,0,1,145.53,162.75Zm32-101.08a15.63,15.63,0,1,0-5.72-21.35A15.62,15.62,0,0,0,177.53,61.67Z" style="fill:#fff"/><path id="b0203e21-a445-4f00-9337-fdb6e7b4dbf4" data-name="path21" d="M134.65,483.56c37.4-6.61,68.29-12.08,68.64-12.15l.65-.14-35.31-42c-19.42-23.1-35.3-42.09-35.3-42.2S169.78,286.49,170,286.13c.06-.12,24.87,42.71,60.13,103.83,33,57.21,60.23,104.39,60.49,104.83l.46.81-112.21,0H66.66ZM0,470.75c0-.06,16.64-28.94,37-64.17l37-64.07L117,306.36c23.69-19.89,43.14-36.18,43.22-36.21a7.35,7.35,0,0,1-.69,1.74L112.77,372.23,66.82,470.77l-33.41.05C15,470.84,0,470.81,0,470.75Z" style="fill:#1d86c8"/><path d="M559.05,253.74l134.81,233.5H424.24Z" style="fill:#010101"/><rect x="360.17" y="119.6" width="33.46" height="30.6" rx="4.88" style="fill:#4291cf"/><rect x="360.41" y="159.1" width="33.46" height="30.6" rx="4.88" style="fill:#4291cf"/><rect x="360.41" y="198.42" width="33.46" height="30.6" rx="4.88" style="fill:#4291cf"/><rect x="317.4" y="159.1" width="33.46" height="30.6" rx="4.88" style="fill:#4291cf"/><rect x="274.45" y="159.23" width="33.46" height="30.6" rx="4.88" style="fill:#4291cf"/><rect x="317.4" y="198.42" width="33.46" height="30.6" rx="4.88" style="fill:#4291cf"/><rect x="274.45" y="198.66" width="33.46" height="30.6" rx="4.88" style="fill:#4291cf"/><rect x="231.78" y="198.8" width="33.46" height="30.6" rx="4.88" style="fill:#4291cf"/><rect x="403.22" y="198.8" width="33.46" height="30.6" rx="4.88" style="fill:#4291cf"/><rect x="449.71" y="8.41" width="103.02" height="103.02" style="fill:#2974ba"/><rect x="564.04" y="8.41" width="103.02" height="103.02" style="fill:#2974ba"/><rect x="449.71" y="122.75" width="103.02" height="103.02" style="fill:#2974ba"/><rect x="564.04" y="122.75" width="103.02" height="103.02" style="fill:#2974ba"/><path d="M467.26,231c-12.95-23.08-7.35-44,6.4-64.44,16.44,8.87,26.83,21.8,30.24,40.15,15.44-1.33,33-2.5,45.56,8.26a1.72,1.72,0,0,1,.55,2.22c-6.87,22-29.69,33.72-51.72,32.77a2.23,2.23,0,0,0-2.53,1.69c-10.41,26.64-24.8,52.2-45.76,72-36.06,34.82-87.67,47-136.61,45.39-61.64-1.11-100.91-28.5-110.12-91.47A192.29,192.29,0,0,1,201,248.7a11.45,11.45,0,0,1,11.68-11.64q114.07.15,228.17,0A58.67,58.67,0,0,0,467.26,231Z" style="fill:#4191cf"/></svg>