<svg width="52" height="52" viewBox="0 0 52 52" fill="none"
  xmlns="http://www.w3.org/2000/svg">
  <g opacity="0.2">
    <circle cx="49.4072" cy="49.1352" r="2.3604" transform="rotate(180 49.4072 49.1352)" fill="white"></circle>
    <circle cx="49.4072" cy="33.5439" r="2.3604" transform="rotate(180 49.4072 33.5439)" fill="white"></circle>
    <circle cx="49.4072" cy="17.9521" r="2.3604" transform="rotate(180 49.4072 17.9521)" fill="white"></circle>
    <circle cx="49.4072" cy="2.36054" r="2.3604" transform="rotate(180 49.4072 2.36054)" fill="white"></circle>
    <circle cx="33.8154" cy="49.1352" r="2.3604" transform="rotate(180 33.8154 49.1352)" fill="white"></circle>
    <circle cx="33.8154" cy="33.5439" r="2.3604" transform="rotate(180 33.8154 33.5439)" fill="white"></circle>
    <circle cx="33.8154" cy="17.9521" r="2.3604" transform="rotate(180 33.8154 17.9521)" fill="white"></circle>
    <circle cx="33.8154" cy="2.36054" r="2.3604" transform="rotate(180 33.8154 2.36054)" fill="white"></circle>
    <circle cx="18.2246" cy="49.1352" r="2.3604" transform="rotate(180 18.2246 49.1352)" fill="white"></circle>
    <circle cx="18.2246" cy="33.5439" r="2.3604" transform="rotate(180 18.2246 33.5439)" fill="white"></circle>
    <circle cx="18.2246" cy="17.9521" r="2.3604" transform="rotate(180 18.2246 17.9521)" fill="white"></circle>
    <circle cx="18.2246" cy="2.36054" r="2.3604" transform="rotate(180 18.2246 2.36054)" fill="white"></circle>
    <circle cx="2.63178" cy="49.1352" r="2.3604" transform="rotate(180 2.63178 49.1352)" fill="white"></circle>
    <circle cx="2.63178" cy="33.5439" r="2.3604" transform="rotate(180 2.63178 33.5439)" fill="white"></circle>
    <circle cx="2.63178" cy="17.9521" r="2.3604" transform="rotate(180 2.63178 17.9521)" fill="white"></circle>
    <circle cx="2.63178" cy="2.36054" r="2.3604" transform="rotate(180 2.63178 2.36054)" fill="white"></circle>
  </g>
</svg>