<svg id="b06fa6de-1290-403a-828c-98f7900f73e9" data-name="Calque 1" xmlns="http://www.w3.org/2000/svg" viewBox="0 0 739.76 475.05"><circle cx="177.33" cy="158.17" r="31.61" style="fill:#75cbed"/><ellipse cx="177.33" cy="158.17" rx="169.62" ry="64.76" style="fill:none;stroke:#75cbed;stroke-width:15.420222282409668px"/><ellipse cx="177.33" cy="158.17" rx="64.76" ry="169.62" transform="translate(-55.33 109.86) rotate(-30)" style="fill:none;stroke:#75cbed;stroke-width:15.42022207483538px"/><ellipse cx="177.33" cy="158.17" rx="169.62" ry="64.76" transform="translate(-48.31 232.66) rotate(-60)" style="fill:none;stroke:#75cbed;stroke-width:15.42022207483538px"/><path d="M602.94,7.71,561.78,78.35,520.62,7.71H383.8l178,305.91,178-305.91Z" style="fill:#4ab382"/><path d="M602.94,7.71,561.78,78.35,520.62,7.71H455L561.78,191.25,668.57,7.71Z" style="fill:#364a5e"/><path d="M290.88,126.55h15.65v15.52H321V126.55h15.66v47H321V157.86H306.67v15.66H290.88m66.43-31.31H343.49V126.55h43.36v15.66H373v31.31H357.31m36.42-47h16.4l10.07,16.54,10.08-16.54h16.4v47H431V150.24l-10.95,16.88-11-16.88v23.28H393.73m60.71-47h15.65V158h22.19v15.52H454.44" style="fill:#dadada"/><path d="M290.33,447.14,267.87,195H514.81L492.35,447,391.14,475.05" style="fill:#e44e28"/><path d="M391.34,453.61V215.72H492.28L473,430.8" style="fill:#ec662b"/><path d="M313.75,246.55h77.59v30.9H347.65l2.85,31.65h40.84v30.84H322.19m1.36,15.52h31l2.18,24.7,34.57,9.26v32.26L327.91,404" style="fill:#ebebeb"/><path d="M468.66,246.55H391.21v30.9h74.6M463,309.1h-71.8V340h38.11l-3.6,40.15-34.51,9.26v32.13L454.51,404" style="fill:#fff"/></svg>