<svg id="Calque_1" data-name="Calque 1" xmlns="http://www.w3.org/2000/svg" viewBox="0 0 1001.87 398.09"><rect x="137.43" y="137.43" width="123.23" height="123.23" rx="12" transform="translate(-82.45 199.05) rotate(-45)" style="fill:#cd1517"/><path d="M285.63,217.37A25.83,25.83,0,0,1,304,209.81V278A26,26,0,0,1,278,304H209.81a25.8,25.8,0,0,1,7.57-18.32Z" style="fill:none"/><path d="M217.38,112.47a25.82,25.82,0,0,1-7.57-18.33H278A26,26,0,0,1,304,120.06v68.22a25.83,25.83,0,0,1-18.32-7.56Z" style="fill:none"/><path d="M180.72,285.63A25.83,25.83,0,0,1,188.28,304H120.06A26,26,0,0,1,94.14,278V209.81a25.85,25.85,0,0,1,18.33,7.56Z" style="fill:none"/><path d="M120.06,94.14h68.22a25.85,25.85,0,0,1-7.56,18.33l-68.25,68.25a25.85,25.85,0,0,1-18.33,7.56V120.06A26,26,0,0,1,120.06,94.14Z" style="fill:none"/><path d="M304,278V209.81a25.83,25.83,0,0,1,18.33,7.56l68.25,68.26a26,26,0,0,1,0,36.65l-68.25,68.25a26,26,0,0,1-36.65,0l-68.25-68.25A25.8,25.8,0,0,1,209.81,304H278A26,26,0,0,0,304,278Z" style="fill:#268035"/><path d="M180.72,75.81a25.85,25.85,0,0,1,7.56,18.33H120.06a26,26,0,0,0-25.92,25.92v68.22a25.85,25.85,0,0,1-18.33-7.56L7.56,112.47a26,26,0,0,1,0-36.66L75.81,7.56a26,26,0,0,1,36.66,0Z" style="fill:#d54a15"/><path d="M278,94.14H209.81a25.82,25.82,0,0,1,7.57-18.33L285.63,7.56a26,26,0,0,1,36.65,0l68.25,68.25a26,26,0,0,1,0,36.66l-68.25,68.25A25.83,25.83,0,0,1,304,188.28V120.06A26,26,0,0,0,278,94.14Z" style="fill:#c61261"/><path d="M120.06,304h68.22a25.83,25.83,0,0,1-7.56,18.33l-68.25,68.25a26,26,0,0,1-36.66,0L7.56,322.28a26,26,0,0,1,0-36.65l68.25-68.26a25.85,25.85,0,0,1,18.33-7.56V278A26,26,0,0,0,120.06,304Z" style="fill:#54256b"/><path d="M180.72,285.63A25.83,25.83,0,0,1,188.28,304H120.06A26,26,0,0,1,94.14,278V209.81a25.82,25.82,0,0,1,18.33,7.57Z" style="fill:#9b2b7c"/><path d="M217.38,285.63l68.25-68.25A25.8,25.8,0,0,1,304,209.81V278A26,26,0,0,1,278,304H209.81A25.8,25.8,0,0,1,217.38,285.63Z" style="fill:#99b91f"/><path d="M112.47,180.72a25.85,25.85,0,0,1-18.33,7.56V120.06a26,26,0,0,1,25.92-25.92h68.22a25.85,25.85,0,0,1-7.56,18.33Z" style="fill:#efae00"/><path d="M304,120.06v68.22a25.83,25.83,0,0,1-18.32-7.56l-68.25-68.25a25.82,25.82,0,0,1-7.57-18.33H278A26,26,0,0,1,304,120.06Z" style="fill:#2a9086"/><text transform="translate(449.92 255.08)" style="font-size:189.2855224609375px;fill:#706f6f;font-family:KeepCalm-Medium, Keep Calm;font-weight:500">SC<tspan x="275.6" y="0" style="letter-spacing:-0.04499857154557479em">T</tspan><tspan x="389.92" y="0">G</tspan></text></svg>