<svg id="a628b369-3a07-4ac6-92c0-7bd98782e9a0" data-name="Calque 1" xmlns="http://www.w3.org/2000/svg" xmlns:xlink="http://www.w3.org/1999/xlink" viewBox="0 0 731.66 354.59"><defs><clipPath id="a446d06b-6c14-4ba5-ab9e-c99494d44eac"><path d="M411.84,98.13c0,45.51,70.13,82.4,156.65,82.4h0c86.51,0,156.65-36.89,156.65-82.4h0c0-45.51-70.14-82.4-156.65-82.4h0c-86.52,0-156.65,36.89-156.65,82.4" style="fill:none"/></clipPath><radialGradient id="bb571fae-12fa-491e-af30-23c8b34b0eef" cx="-57.1" cy="516.71" r="0.45" gradientTransform="matrix(453.82, 0, 0, -453.82, 26420.59, 234539.02)" gradientUnits="userSpaceOnUse"><stop offset="0" stop-color="#aeb2d5"/><stop offset="0.3" stop-color="#aeb2d5"/><stop offset="0.75" stop-color="#494d8a"/><stop offset="1" stop-color="#494d8a"/></radialGradient><clipPath id="a402ca2f-d54b-41de-83a8-7fd0f0b53a94"><rect x="405.31" y="6.35" width="326.35" height="183.57" style="fill:none"/></clipPath></defs><g id="a235ee5b-7b60-4832-b8a8-e6f29ebc8b86" data-name="g3438"><g id="be4e3a7b-6ec0-4a57-82f0-e0883405e12c" data-name="g3440"><g style="clip-path:url(#a446d06b-6c14-4ba5-ab9e-c99494d44eac)"><g id="a8d811b2-f899-4dc9-a7b0-7a7b605b2a69" data-name="g3442"><g id="b9546793-9625-404e-ad1c-cff5ec9bec64" data-name="g3448"><g id="a8ff76dc-ee6d-432a-af0e-3134d3ea758f" data-name="g3450"><path id="b4ad7e71-3062-41b1-b1da-8bcf4fdccf1d" data-name="path3462" d="M411.84,98.13c0,45.51,70.13,82.4,156.65,82.4h0c86.51,0,156.65-36.89,156.65-82.4h0c0-45.51-70.14-82.4-156.65-82.4h0c-86.52,0-156.65,36.89-156.65,82.4" style="fill:url(#bb571fae-12fa-491e-af30-23c8b34b0eef)"/></g></g></g></g></g><g id="e07b9ae4-2e3d-4a7d-a15d-2ce98301d4ed" data-name="g3464"><g style="clip-path:url(#a402ca2f-d54b-41de-83a8-7fd0f0b53a94)"><g id="abb6e7dd-20fc-42b3-8348-005d09805bd0" data-name="g3466"><g id="f275290c-8f1c-4d72-ae12-8f2e2aa55a23" data-name="g3472"><path id="a2772aea-5021-421b-8ea9-de7b05b1a760" data-name="path3474" d="M568.49,174.42c83.13,0,150.53-34.16,150.53-76.29s-67.4-76.28-150.53-76.28S418,56,418,98.13s67.39,76.29,150.53,76.29" style="fill:#777cb4"/></g></g></g></g><g id="a7969fb4-d33d-4e06-b244-575e3d896585" data-name="g3476"><g style="clip-path:url(#a402ca2f-d54b-41de-83a8-7fd0f0b53a94)"><g id="ad6665b9-5ac8-42b7-a5de-4db704c6f9ee" data-name="g3478"><g id="b68413e7-ba8c-48d8-9cf8-f253b7979ed2" data-name="g3484"><path id="a9e6997b-5ba0-458c-872c-f9db41fcb868" data-name="path3486" d="M497,107.59c6.83,0,11.94-1.26,15.17-3.75s5.4-6.72,6.55-12.66c1.08-5.56.67-9.44-1.22-11.53s-6.1-3.22-12.4-3.22H494.12l-6.05,31.16ZM461.22,146a1.71,1.71,0,0,1-1.67-2L475.6,61.37A1.69,1.69,0,0,1,477.27,60h34.59c10.87,0,19,3,24,8.77s6.69,14,4.69,24.32a37.61,37.61,0,0,1-11.81,21.15,33.47,33.47,0,0,1-12.6,7.55c-4.53,1.48-10.36,2.23-17.31,2.23h-14l-4,20.58a1.71,1.71,0,0,1-1.67,1.38Z" style="fill:#010101"/></g><g id="b1874e92-6f78-4e1c-b4a7-3a070accc89b" data-name="g3488"><path id="af7cc02b-5773-4074-8c66-97508cc77e20" data-name="path3490" d="M495.53,78.13h9.52c7.6,0,10.24,1.67,11.14,2.66,1.49,1.65,1.77,5.13.81,10.07-1.07,5.52-3.06,9.44-5.92,11.64s-7.68,3.39-14.13,3.39h-6.82ZM511.86,58.3H477.27a3.4,3.4,0,0,0-3.34,2.75l-16.05,82.58a3.38,3.38,0,0,0,3.34,4h18a3.39,3.39,0,0,0,3.33-2.75l3.74-19.2h12.6a58.86,58.86,0,0,0,17.84-2.31A35.29,35.29,0,0,0,530,115.49a39.26,39.26,0,0,0,12.32-22.08c2.11-10.82.4-19.49-5.08-25.76s-14-9.35-25.33-9.35m-25.85,51H497q10.88,0,16.2-4.1t7.19-13.69q1.78-9.19-1.63-13t-13.66-3.78H492.72L486,109.29M511.86,61.7q15.61,0,22.77,8.19t4.3,22.88A35.86,35.86,0,0,1,527.64,113a31.66,31.66,0,0,1-12,7.19q-6.58,2.14-16.78,2.14H483.47l-4.26,22h-18l16-82.58h34.59" style="fill:#fff"/></g><g id="e36fa335-df3b-4b03-acd8-5cbb0bb829ec" data-name="g3492"><path id="a28433fa-583a-42c9-8e3e-991157a3fcc4" data-name="path3494" d="M581.85,124a1.7,1.7,0,0,1-1.31-.62,1.66,1.66,0,0,1-.36-1.4l7.1-36.54c.68-3.48.51-6-.47-7-.6-.65-2.39-1.73-7.71-1.73H566.24l-8.93,45.93a1.69,1.69,0,0,1-1.67,1.38H537.8a1.7,1.7,0,0,1-1.31-.62,1.66,1.66,0,0,1-.36-1.4l16-82.58A1.69,1.69,0,0,1,553.85,38h17.84a1.73,1.73,0,0,1,1.32.62,1.7,1.7,0,0,1,.35,1.41L569.49,60h13.84c10.54,0,17.69,1.86,21.85,5.68s5.57,10.14,3.94,18.54l-7.47,38.42A1.71,1.71,0,0,1,600,124Z" style="fill:#010101"/></g><g id="f5fa9752-5194-44f3-921f-0b28b6d8a605" data-name="g3496"><path id="e8df77af-6dcf-483d-bbc3-18efbe8f2c21" data-name="path3498" d="M571.69,36.34H553.85a3.41,3.41,0,0,0-3.34,2.75l-16,82.58a3.4,3.4,0,0,0,3.34,4h17.84A3.4,3.4,0,0,0,559,123l8.66-44.56H579.1c5.31,0,6.42,1.13,6.47,1.18.32.35.74,2,0,5.54l-7.1,36.54a3.39,3.39,0,0,0,.72,2.81,3.36,3.36,0,0,0,2.62,1.24H600a3.4,3.4,0,0,0,3.34-2.75l7.46-38.43c1.76-9,.26-15.79-4.45-20.11-4.49-4.13-12-6.13-23-6.13H571.55L575,40.39a3.39,3.39,0,0,0-.71-2.81,3.43,3.43,0,0,0-2.63-1.24m0,3.4-4.26,22h15.9q15,0,20.7,5.23t3.42,17L600,122.32H581.85L589,85.78c.81-4.15.51-7-.89-8.5s-4.39-2.27-9-2.27H564.84l-9.2,47.31H537.8l16.05-82.58h17.84" style="fill:#fff"/></g><g id="fddd0bc1-259f-41e2-b959-0fd143aefa54" data-name="g3500"><path id="b290567f-7b44-4e17-82da-efdc88ea6581" data-name="path3502" d="M637.35,107.59c6.84,0,11.94-1.26,15.17-3.75s5.4-6.72,6.56-12.66c1.08-5.56.67-9.44-1.22-11.53s-6.1-3.22-12.4-3.22H634.53l-6.06,31.16ZM601.63,146a1.73,1.73,0,0,1-1.32-.62A1.71,1.71,0,0,1,600,144l16-82.58A1.69,1.69,0,0,1,617.68,60h34.59c10.87,0,19,3,24.05,8.77s6.69,14,4.69,24.32a37.61,37.61,0,0,1-11.81,21.15,33.55,33.55,0,0,1-12.6,7.55c-4.54,1.48-10.36,2.23-17.31,2.23h-14l-4,20.58a1.69,1.69,0,0,1-1.67,1.38Z" style="fill:#010101"/></g><g id="f7e67155-8f9b-414d-8d3e-6367f16a0876" data-name="g3504"><path id="b4efaea4-4689-468a-9ea7-196f1c4baa45" data-name="path3506" d="M635.93,78.13h9.53c7.6,0,10.24,1.67,11.14,2.66,1.49,1.65,1.77,5.13.81,10.07-1.07,5.52-3.07,9.44-5.92,11.64s-7.68,3.39-14.14,3.39h-6.81ZM652.27,58.3H617.68a3.4,3.4,0,0,0-3.34,2.75l-16.05,82.58a3.38,3.38,0,0,0,3.34,4h18a3.4,3.4,0,0,0,3.34-2.75l3.73-19.2h12.61c7.13,0,13.13-.78,17.83-2.31a35.33,35.33,0,0,0,13.24-7.92,39.42,39.42,0,0,0,12.32-22.08c2.1-10.82.39-19.49-5.08-25.76s-14-9.35-25.33-9.35m-25.86,51h10.94q10.89,0,16.21-4.1t7.19-13.69q1.79-9.19-1.63-13t-13.66-3.78H633.13l-6.72,34.56M652.27,61.7q15.6,0,22.77,8.19t4.3,22.88A35.86,35.86,0,0,1,668.05,113a31.82,31.82,0,0,1-12,7.19q-6.59,2.14-16.78,2.14H623.88l-4.27,22h-18l16-82.58h34.59" style="fill:#fff"/></g></g></g></g></g><path id="f25b0ea0-cb31-41f5-9008-d80d03f2ecbb" data-name="a" d="M216.7,347.66V295.78l51.87,51.88V295.78" style="fill:none;stroke:#129a39;stroke-linecap:round;stroke-linejoin:round;stroke-width:13.605326414108276px"/><path d="M300.08,289.05l-1.88,3.48-14.45,26.28-1.87,3.32,1.87,3.31,14.45,25.43,2,3.48H338l1.87-3.82,10.8-21.77,4.85-9.87h-11l-27.64.09a6.81,6.81,0,1,0,0,13.61l16.67-.09-4.08,8.25H308.07L297.44,322l10.71-19.39H331l5.31,10.91H350l-8.63-20.69-1.87-3.82H300.08Z" style="fill:#129a39"/><path d="M369,289a7.08,7.08,0,0,0-6.72,6.89v17.73h13.61V295.85A7.08,7.08,0,0,0,369,289Z" style="fill:#129a39"/><path id="ef930344-d451-41cc-b2ad-0131eee1bc68" data-name="a" d="M442.67,347.79V295.92L390.8,347.79V295.92" style="fill:none;stroke:#129a39;stroke-linecap:round;stroke-linejoin:round;stroke-width:13.605326414108276px"/><path id="a61be47e-6d4f-489c-bed1-29565511d61e" data-name="b" d="M464.23,295.9l51.93,51.75" style="fill:none;stroke:#129a39;stroke-linecap:round;stroke-linejoin:round;stroke-width:13.605326414108276px"/><path id="bf508d21-b7a8-4fae-b4ab-9ecdda51672f" data-name="b" d="M516.22,295.9l-51.93,51.75" style="fill:none;stroke:#129a39;stroke-linecap:round;stroke-linejoin:round;stroke-width:13.605326414108276px"/><path d="M369,354.4a7.08,7.08,0,0,1-6.72-6.89V319h13.61v28.47A7.08,7.08,0,0,1,369,354.4Z" style="fill:#129a39"/><path d="M1,184.35H13.84V133.64l19.88,44.21c2.35,5.35,5.56,7.25,11.86,7.25s9.38-1.9,11.73-7.25l19.88-44.21v50.71H90V133.73c0-4.94-2-7.33-6-8.57-9.76-3-16.3-.41-19.26,6.18L45.21,175l-18.9-43.63c-2.84-6.59-9.5-9.22-19.26-6.18-4.07,1.24-6,3.63-6,8.57v50.62Z" style="fill:#fff;stroke:#006189;stroke-miterlimit:10;stroke-width:2px"/><path d="M100.71,143.08h12.84V171c-.12,1.51.48,5.08,7.52,5.19,3.59,0,27.7,0,27.92,0V142.94h12.87c.06,0,0,45.37,0,45.56.07,11.19-13.88,13.62-20.31,13.8H101v-8.63h40.62c8.26-.87,7.29-5,7.29-6.36v-3.37H121.6c-12.7-.12-20.79-5.66-20.89-12,0-.59.28-28.54,0-28.82Z" style="fill:#fff;stroke:#006189;stroke-miterlimit:10;stroke-width:2px"/><path d="M171.76,184.35h36.92a28.37,28.37,0,0,0,11.85-2.47c5.56-2.55,8.28-6,8.28-10.53V162c0-3.7-3.09-7.16-9.14-9.46a31.46,31.46,0,0,0-11-1.9H193.12c-5.19,0-7.66-1.56-8.27-5a3.48,3.48,0,0,1-.13-1.15v-5.85a3.25,3.25,0,0,1,.13-1.07c.61-2.63,2-3.37,6.54-3.78.37,0,.87-.09,1.24-.09H229.3v-8.56H193.24c-5.18,0-7.9.33-10.37,1.07-7.66,2.39-11,6.18-11,12.76v7.49c0,5.77,6.55,10.71,17.54,11.86,1.23.08,2.46.16,3.7.16h13.34a7,7,0,0,1,1.35.08c4.08.33,5.81,1.07,7,2.56a3.06,3.06,0,0,1,1,2.3v7.49A4.3,4.3,0,0,1,214,173.9a9.08,9.08,0,0,1-5.44,1.81c-.49,0-.86.08-1.35.08H171.76v8.56Z" style="fill:#e48f00"/><path d="M308.92,169.45c0,8.81,6.54,13.75,19.75,14.74,1.24.08,2.47.16,3.71.16h33.46v-8.56H332.13c-7.53,0-10.37-1.89-10.37-6.42V125.08H308.92v44.37Z" style="fill:#e48f00"/><path d="M237,169.9V139.38c0-7.75,5.45-12.46,16.21-13.94a23.73,23.73,0,0,1,3.47-.25h24.37a25.49,25.49,0,0,1,3.59.25c10.77,1.48,16.21,6.19,16.21,13.94V169.9c0,6.29-2.31,9.66-7.64,11.85l12.65,11.42H291l-10.24-9.23-10.3.65H256.68a28.11,28.11,0,0,1-7.55-1.08C241,181.29,237,177,237,169.9Zm13.86-.74a5.84,5.84,0,0,0,.25,1.32c.74,3.55,4.08,5.53,9.16,5.53h11.66l-10.71-9.68h14.91l9.34,8.44a6.09,6.09,0,0,0,3.26-4.12,4.39,4.39,0,0,0,.12-1.24V140.12a4,4,0,0,0-.12-1.15c-.75-3.3-4.09-5.2-9-5.2H260.27c-5.7,0-9.41,2.48-9.41,6.35v29Z" style="fill:#e48f00"/><path d="M377.14,110.88c-7.89-.22-13.92.52-19.08,2.69-1.46.62-3.8.64-4,2.47.81.85.93,2.11,1.57,3.15a24.69,24.69,0,0,0,5.17,6.06c2,1.53,4.11,3.16,6.28,4.49,3.86,2.35,8.18,3.7,11.9,6.06,2.19,1.39,4.37,3.14,6.51,4.71,1.05.78,1.76,2,3.14,2.47v-.23c-.73-.92-.91-2.18-1.57-3.14l-2.92-2.92a47.91,47.91,0,0,0-10.33-9.87c-3.07-2.21-9.94-5.18-11.22-8.76l-.22-.22a50,50,0,0,0,6.73-1.57c3.38-.91,6.39-.67,9.88-1.57l4.71-1.35v-.9c-1.76-1.81-3-4.2-4.94-5.83a144,144,0,0,0-16.16-12.13c-3.13-2-7-3.26-10.32-4.93-1.12-.57-3.08-.86-3.82-1.8-1.75-2.22-2.7-5-4-7.63-2.82-5.43-5.59-11.35-8.08-17.06-1.7-3.89-2.82-7.73-4.94-11.22C321.16,35.09,310.19,25,293.19,15c-3.61-2.11-8-2.95-12.57-4l-7.4-.45c-1.51-.63-3.08-2.47-4.49-3.36-5.63-3.56-20.08-11.3-24.25-1.13-2.63,6.42,3.94,12.69,6.29,15.94,1.65,2.28,3.76,4.84,4.94,7.41.77,1.69.91,3.38,1.57,5.16,1.63,4.4,3.05,9.18,5.16,13.25A47.59,47.59,0,0,0,266,53.87c.83,1.12,2.25,1.62,2.47,3.36-1.39,1.94-1.46,5-2.24,7.41-3.51,11.06-2.19,24.81,2.91,33,1.57,2.51,5.26,7.9,10.33,5.83,4.44-1.8,3.44-7.4,4.71-12.34.29-1.12.11-1.95.68-2.7v.23q2,4,4,8.08c3,4.81,8.29,9.85,12.79,13.24,2.33,1.76,4.17,4.81,7.18,5.84v-.23h-.22c-.58-.91-1.5-1.28-2.24-2a51.93,51.93,0,0,1-5.17-5.83,137.62,137.62,0,0,1-11-18c-1.57-3-2.93-6.35-4.26-9.43-.51-1.18-.51-3-1.57-3.59-1.45,2.25-3.59,4.08-4.72,6.74-1.79,4.25-2,9.43-2.69,14.81-.39.14-.22,0-.45.22-3.12-.75-4.22-4-5.38-6.73-2.94-7-3.49-18.22-.9-26.26C271,63.46,274,56.91,272.77,55c-.59-1.92-2.52-3-3.6-4.49a36.05,36.05,0,0,1-3.59-6.29c-2.4-5.44-3.53-11.55-6.06-17.06a49.24,49.24,0,0,0-4.94-7.63c-1.86-2.59-3.94-4.5-5.38-7.63-.52-1.11-1.21-2.9-.45-4A1.79,1.79,0,0,1,250.1,6.5c1.3-1,4.92.34,6.28.9A55,55,0,0,1,266,12.34c1.47,1,3,2.85,4.72,3.37h2c3.16.72,6.7.22,9.65,1.12a58.21,58.21,0,0,1,14.14,6.73,87.57,87.57,0,0,1,30.75,33.67C328.48,59.47,329,61.6,330,64c2.07,4.77,4.68,9.69,6.74,14.36s4.05,9.37,7,13.25c1.52,2,7.42,3.13,10.1,4.26,1.88.79,4.95,1.62,6.73,2.69,3.4,2,6.69,4.49,9.88,6.74,1.59,1.12,6.49,3.58,6.73,5.61Z" style="fill:#fff;stroke:#006189;stroke-miterlimit:10;stroke-width:2px"/><path d="M276.81,25.36a16,16,0,0,0-4,.45V26H273c.79,1.62,2.17,2.65,3.14,4l2.25,4.72.22-.23c1.39-1,2-2.54,2-4.94-.56-.58-.64-1.32-1.12-2-.64-.93-1.88-1.46-2.69-2.24Z" style="fill:#fff;stroke:#006189;stroke-miterlimit:10;stroke-width:2px;fill-rule:evenodd"/><path d="M371.87,175.55a9.47,9.47,0,1,0,9.47-9.46,9.34,9.34,0,0,0-9.47,9.46Zm16.81,0a7.35,7.35,0,1,1-7.34-7.5,7.32,7.32,0,0,1,7.34,7.5Zm-4.8,5.4H386l-3.1-4.74c1.67-.18,2.93-1,2.93-3,0-2.19-1.39-3.1-4.07-3.1h-4.21V181h1.82v-4.67h1.69l2.82,4.67Zm-4.51-6.18v-3.11h2.09c1.09,0,2.4.21,2.4,1.47,0,1.51-1.19,1.64-2.55,1.64Z" style="fill:#e48f00;fill-rule:evenodd"/></svg>