<?xml version="1.0" standalone="no"?>
<!DOCTYPE svg PUBLIC "-//W3C//DTD SVG 20010904//EN"
 "http://www.w3.org/TR/2001/REC-SVG-20010904/DTD/svg10.dtd">
<svg version="1.0" xmlns="http://www.w3.org/2000/svg"
 width="700.000000pt" height="700.000000pt" viewBox="0 0 700.000000 700.000000"
 preserveAspectRatio="xMidYMid meet">
<metadata>
Created by potrace 1.14, written by Peter Selinger 2001-2017
</metadata>
<g transform="translate(0.000000,700.000000) scale(0.100000,-0.100000)"
fill="#000000" stroke="none">
<path d="M1541 6984 c-119 -32 -126 -38 -796 -706 -352 -351 -651 -654 -663
-673 -51 -73 -76 -154 -77 -249 -1 -49 4 -108 11 -131 35 -119 38 -122 717
-802 687 -686 687 -686 808 -718 60 -16 167 -16 227 0 123 32 111 22 808 719
538 538 665 670 684 711 78 171 64 337 -41 480 -59 80 -1278 1289 -1329 1318
-25 15 -66 34 -90 42 -63 22 -193 27 -259 9z"/>
<path d="M5230 6984 c-120 -33 -116 -29 -796 -707 -359 -357 -662 -668 -675
-691 -49 -84 -67 -155 -65 -246 2 -102 25 -174 77 -250 20 -30 322 -339 671
-687 545 -543 641 -635 693 -661 85 -42 154 -56 240 -49 83 7 132 22 202 62
59 34 1299 1267 1344 1337 93 143 101 315 22 472 -34 68 -1305 1342 -1372
1376 -111 55 -239 72 -341 44z"/>
<path d="M3460 4967 c-28 -7 -172 -146 -716 -690 -375 -375 -689 -694 -698
-709 -24 -37 -23 -100 3 -140 26 -42 1358 -1371 1390 -1388 35 -18 97 -14 134
9 42 27 1370 1358 1387 1391 15 29 15 92 -1 123 -19 36 -1362 1377 -1394 1391
-45 21 -66 23 -105 13z"/>
<path d="M1540 3296 c-121 -34 -123 -36 -793 -704 -351 -351 -651 -657 -667
-681 -54 -80 -73 -146 -74 -251 0 -112 17 -171 74 -257 23 -35 284 -303 672
-689 574 -572 639 -634 698 -662 84 -41 138 -52 230 -48 83 4 163 30 231 76
24 16 332 318 685 672 694 697 677 678 704 816 23 117 -1 240 -66 337 -18 28
-322 338 -676 690 -675 672 -671 669 -791 701 -63 17 -166 17 -227 0z"/>
<path d="M5230 3296 c-123 -35 -122 -35 -807 -719 -646 -647 -672 -676 -710
-777 -23 -60 -27 -178 -9 -247 34 -135 24 -123 720 -819 594 -594 657 -654
717 -683 80 -39 110 -45 214 -45 96 0 161 20 242 73 83 55 1314 1292 1343
1350 54 107 69 205 50 313 -25 138 -16 127 -708 821 -351 351 -659 653 -687
671 -27 19 -72 42 -100 51 -64 23 -205 29 -265 11z"/>
</g>
</svg>
